<svg width="87" height="19" viewBox="0 0 87 19" fill="none" xmlns="http://www.w3.org/2000/svg">
<path d="M5.408 1.00799V10.584C5.408 11.368 5.576 11.992 5.912 12.456C6.264 12.904 6.824 13.128 7.592 13.128C8.36 13.128 8.928 12.904 9.296 12.456C9.664 11.992 9.848 11.368 9.848 10.584V1.00799H15.152V10.584C15.152 12.2 14.816 13.584 14.144 14.736C13.472 15.872 12.552 16.728 11.384 17.304C10.216 17.88 8.912 18.168 7.472 18.168C6.032 18.168 4.752 17.88 3.632 17.304C2.528 16.728 1.664 15.872 1.04 14.736C0.416004 13.6 0.104004 12.216 0.104004 10.584V1.00799H5.408Z" fill="white"/>
<path d="M26.33 18L24.05 14.952L22.346 18H16.49L21.026 10.872L16.25 4.46399H22.202L24.482 7.53599L26.21 4.46399H32.066L27.386 11.424L32.282 18H26.33Z" fill="white"/>
<path d="M44.1373 14.592H37.1533L35.9533 18H33.0973L39.0733 1.29599H42.2413L48.2173 18H45.3373L44.1373 14.592ZM43.3693 12.36L40.6573 4.60799L37.9213 12.36H43.3693Z" fill="white"/>
<path d="M53.5516 6.69599C53.9516 6.02399 54.4796 5.50399 55.1356 5.13599C55.8076 4.75199 56.5996 4.55999 57.5116 4.55999V7.39199H56.8156C55.7436 7.39199 54.9276 7.66399 54.3676 8.20799C53.8236 8.75199 53.5516 9.69599 53.5516 11.04V18H50.8156V4.77599H53.5516V6.69599Z" fill="white"/>
<path d="M59.1146 11.376C59.1146 10.016 59.3866 8.82399 59.9306 7.79999C60.4906 6.75999 61.2586 5.95999 62.2346 5.39999C63.2106 4.83999 64.3306 4.55999 65.5946 4.55999C67.1946 4.55999 68.5146 4.94399 69.5546 5.71199C70.6106 6.46399 71.3226 7.54399 71.6906 8.95199H68.7386C68.4986 8.29599 68.1146 7.78399 67.5866 7.41599C67.0586 7.04799 66.3946 6.86399 65.5946 6.86399C64.4746 6.86399 63.5786 7.26399 62.9066 8.06399C62.2506 8.84799 61.9226 9.95199 61.9226 11.376C61.9226 12.8 62.2506 13.912 62.9066 14.712C63.5786 15.512 64.4746 15.912 65.5946 15.912C67.1786 15.912 68.2266 15.216 68.7386 13.824H71.6906C71.3066 15.168 70.5866 16.24 69.5306 17.04C68.4746 17.824 67.1626 18.216 65.5946 18.216C64.3306 18.216 63.2106 17.936 62.2346 17.376C61.2586 16.8 60.4906 16 59.9306 14.976C59.3866 13.936 59.1146 12.736 59.1146 11.376Z" fill="white"/>
<path d="M81.2572 4.55999C82.2652 4.55999 83.1612 4.77599 83.9452 5.20799C84.7452 5.63999 85.3692 6.27999 85.8172 7.12799C86.2812 7.97599 86.5132 8.99999 86.5132 10.2V18H83.8012V10.608C83.8012 9.42399 83.5052 8.51999 82.9132 7.89599C82.3212 7.25599 81.5132 6.93599 80.4892 6.93599C79.4652 6.93599 78.6492 7.25599 78.0412 7.89599C77.4492 8.51999 77.1532 9.42399 77.1532 10.608V18H74.4172V0.23999H77.1532V6.31199C77.6172 5.75199 78.2012 5.31999 78.9052 5.01599C79.6252 4.71199 80.4092 4.55999 81.2572 4.55999Z" fill="white"/>
</svg>
