<svg width="87" height="19" viewBox="0 0 87 19" fill="none" xmlns="http://www.w3.org/2000/svg">
<path d="M5.408 1.008V10.584C5.408 11.368 5.576 11.992 5.912 12.456C6.264 12.904 6.824 13.128 7.592 13.128C8.36 13.128 8.928 12.904 9.296 12.456C9.664 11.992 9.848 11.368 9.848 10.584V1.008H15.152V10.584C15.152 12.2 14.816 13.584 14.144 14.736C13.472 15.872 12.552 16.728 11.384 17.304C10.216 17.88 8.912 18.168 7.472 18.168C6.032 18.168 4.752 17.88 3.632 17.304C2.528 16.728 1.664 15.872 1.04 14.736C0.416 13.6 0.104 12.216 0.104 10.584V1.008H5.408ZM26.33 18L24.05 14.952L22.346 18H16.49L21.026 10.872L16.25 4.464H22.202L24.482 7.536L26.21 4.464H32.066L27.386 11.424L32.282 18H26.33ZM44.1373 14.592H37.1533L35.9533 18H33.0973L39.0733 1.296H42.2413L48.2173 18H45.3373L44.1373 14.592ZM43.3693 12.36L40.6573 4.608L37.9213 12.36H43.3693ZM53.5516 6.696C53.9516 6.024 54.4796 5.504 55.1356 5.136C55.8076 4.752 56.5996 4.56 57.5116 4.56V7.392H56.8156C55.7436 7.392 54.9276 7.664 54.3676 8.208C53.8236 8.752 53.5516 9.696 53.5516 11.04V18H50.8156V4.776H53.5516V6.696ZM59.1146 11.376C59.1146 10.016 59.3866 8.824 59.9306 7.8C60.4906 6.76 61.2586 5.96 62.2346 5.4C63.2106 4.84 64.3306 4.56 65.5946 4.56C67.1946 4.56 68.5146 4.944 69.5546 5.712C70.6106 6.464 71.3226 7.544 71.6906 8.952H68.7386C68.4986 8.296 68.1146 7.784 67.5866 7.416C67.0586 7.048 66.3946 6.864 65.5946 6.864C64.4746 6.864 63.5786 7.264 62.9066 8.064C62.2506 8.848 61.9226 9.952 61.9226 11.376C61.9226 12.8 62.2506 13.912 62.9066 14.712C63.5786 15.512 64.4746 15.912 65.5946 15.912C67.1786 15.912 68.2266 15.216 68.7386 13.824H71.6906C71.3066 15.168 70.5866 16.24 69.5306 17.04C68.4746 17.824 67.1626 18.216 65.5946 18.216C64.3306 18.216 63.2106 17.936 62.2346 17.376C61.2586 16.8 60.4906 16 59.9306 14.976C59.3866 13.936 59.1146 12.736 59.1146 11.376ZM81.2572 4.56C82.2652 4.56 83.1612 4.776 83.9452 5.208C84.7452 5.64 85.3692 6.28 85.8172 7.128C86.2812 7.976 86.5132 9 86.5132 10.2V18H83.8012V10.608C83.8012 9.424 83.5052 8.52 82.9132 7.896C82.3212 7.256 81.5132 6.936 80.4892 6.936C79.4652 6.936 78.6492 7.256 78.0412 7.896C77.4492 8.52 77.1532 9.424 77.1532 10.608V18H74.4172V0.24H77.1532V6.312C77.6172 5.752 78.2012 5.32 78.9052 5.016C79.6252 4.712 80.4092 4.56 81.2572 4.56Z" fill="#222222"/>
</svg>
